<svg width="320" height="31" viewBox="0 0 320 31" fill="none" xmlns="http://www.w3.org/2000/svg">
<path d="M319.386 6.75381C319.386 10.447 316.392 13.4471 312.695 13.4471C309.001 13.4471 306.001 10.447 306.001 6.75381C306.001 3.05824 309.001 0.060791 312.695 0.060791C316.392 0.060791 319.386 3.05824 319.386 6.75381Z" fill="#B41513"/>
<path d="M311.31 2.59937H314.08V5.37164H316.851V8.14099H314.08V10.9101H311.31V8.14099H308.539V5.37164H311.31V2.59937Z" fill="white"/>
<path fill-rule="evenodd" clip-rule="evenodd" d="M292.574 24.5521C290.136 26.0325 286.798 26.7759 282.545 26.7759H273.937V10.1773H282.545C286.628 10.1773 289.925 10.9484 292.443 12.4958C294.966 14.0427 296.225 16.0474 296.225 18.5059C296.225 21.0482 295.012 23.0739 292.574 24.5521ZM296.6 10.0844C293.018 7.9134 288.302 6.82349 282.46 6.82349H268.308V30.131H282.46C288.448 30.131 293.188 29.0776 296.696 26.9851C300.21 24.8755 301.974 22.0732 301.974 18.5639C301.974 15.0844 300.183 12.2664 296.6 10.0844Z" fill="#044772"/>
<path fill-rule="evenodd" clip-rule="evenodd" d="M224.908 30.131V6.82349H258.578V10.234H230.538V16.0572H248.964V19.4111H230.538V26.7759H258.531V30.131H224.908Z" fill="#044772"/>
<path fill-rule="evenodd" clip-rule="evenodd" d="M167.343 30.1238V0H172.672L191.4 18.4425L210.239 0H215.484V30.1238H209.782V6.60333L191.4 24.4254L173.019 6.60333V30.1238H167.343Z" fill="#044772"/>
<path fill-rule="evenodd" clip-rule="evenodd" d="M111.02 30.131V10.0733H98.4468V6.82349H129.18V10.0733H116.608V30.131H111.02Z" fill="#707172"/>
<path fill-rule="evenodd" clip-rule="evenodd" d="M69.2139 16.5263V10.2168H84.2663C86.2018 10.2168 87.6782 10.489 88.6949 11.0192C89.7124 11.5558 90.2288 12.3431 90.2288 13.3534C90.2288 14.3693 89.7124 15.1553 88.6949 15.7022C87.6782 16.2534 86.2018 16.5263 84.2663 16.5263H69.2139ZM69.2139 19.9314H80.8295L90.9724 30.1138H97.0628L87.1177 19.8798C89.7569 19.6078 91.8922 18.8634 93.5222 17.65C95.1564 16.4461 95.9732 15.0142 95.9732 13.3534C95.9732 11.3173 94.9395 9.73369 92.8629 8.58682C90.8002 7.44288 87.935 6.86426 84.2663 6.86426H63.582V30.1138H69.2139V19.9314Z" fill="#707172"/>
<path d="M54.3015 6.7627H48.5991V30.1272H54.3015V6.7627Z" fill="#707172"/>
<path fill-rule="evenodd" clip-rule="evenodd" d="M136.208 21.1251L143.259 12.198L150.224 21.1251H136.208ZM123.228 30.131H129.145L133.774 24.2085H152.701L157.359 30.131H163.358L144.979 6.82349H141.455L123.228 30.131Z" fill="#707172"/>
<path fill-rule="evenodd" clip-rule="evenodd" d="M25.9475 30.1238L48.3986 0H42.0236L24.143 24.1446L6.26185 0H0L22.3371 30.1238H25.9475Z" fill="#707172"/>
</svg>
