<svg width="175" height="18" viewBox="0 0 175 18" fill="none" xmlns="http://www.w3.org/2000/svg">
<g opacity="0.2">
<path d="M174.994 4.2648C174.994 6.28832 173.353 7.9321 171.328 7.9321C169.304 7.9321 167.66 6.28832 167.66 4.2648C167.66 2.23998 169.304 0.597656 171.328 0.597656C173.353 0.597656 174.994 2.23998 174.994 4.2648Z" fill="white"/>
<path d="M170.569 1.98828H172.087V3.50723H173.605V5.02457H172.087V6.54177H170.569V5.02457H169.051V3.50723H170.569V1.98828Z" fill="#94999C"/>
<path fill-rule="evenodd" clip-rule="evenodd" d="M160.303 14.0164C158.967 14.8275 157.139 15.2348 154.808 15.2348H150.092V6.14032H154.808C157.045 6.14032 158.852 6.56279 160.232 7.41063C161.614 8.25819 162.304 9.35657 162.304 10.7036C162.304 12.0965 161.639 13.2064 160.303 14.0164ZM162.509 6.08943C160.547 4.8999 157.962 4.30273 154.762 4.30273H147.008V17.0731H154.762C158.043 17.0731 160.64 16.4959 162.562 15.3494C164.487 14.1936 165.454 12.6581 165.454 10.7354C165.454 8.82896 164.472 7.28493 162.509 6.08943Z" fill="white"/>
<path fill-rule="evenodd" clip-rule="evenodd" d="M123.229 17.0731V4.30273H141.676V6.17138H126.313V9.36197H136.409V11.1996H126.313V15.2348H141.651V17.0731H123.229Z" fill="white"/>
<path fill-rule="evenodd" clip-rule="evenodd" d="M91.6885 17.0695V0.564453H94.6084L104.87 10.6692L115.192 0.564453H118.065V17.0695H114.941V4.18246L104.87 13.9473L94.7983 4.18246V17.0695H91.6885Z" fill="white"/>
<path fill-rule="evenodd" clip-rule="evenodd" d="M60.8285 17.0731V6.0833H53.9395V4.30273H70.7781V6.0833H63.8901V17.0731H60.8285Z" fill="white"/>
<path fill-rule="evenodd" clip-rule="evenodd" d="M37.9226 9.61906V6.16205H46.17C47.2304 6.16205 48.0394 6.31123 48.5964 6.60172C49.1539 6.89571 49.4368 7.32708 49.4368 7.88064C49.4368 8.43727 49.1539 8.8679 48.5964 9.16758C48.0394 9.46959 47.2304 9.61906 46.17 9.61906H37.9226ZM37.9226 11.4848H44.2869L49.8443 17.0638H53.1813L47.7322 11.4565C49.1783 11.3075 50.3483 10.8996 51.2413 10.2347C52.1367 9.57517 52.5842 8.79061 52.5842 7.88064C52.5842 6.76505 52.0178 5.89737 50.8801 5.269C49.7499 4.64223 48.1801 4.3252 46.17 4.3252H34.8369V17.0638H37.9226V11.4848Z" fill="white"/>
<path d="M29.7523 4.26953H26.6279V17.0711H29.7523V4.26953Z" fill="white"/>
<path fill-rule="evenodd" clip-rule="evenodd" d="M74.6295 12.1387L78.4928 7.24745L82.309 12.1387H74.6295ZM67.5176 17.0731H70.7598L73.2957 13.8281H83.6662L86.218 17.0731H89.5053L79.4351 4.30273H77.5043L67.5176 17.0731Z" fill="white"/>
<path fill-rule="evenodd" clip-rule="evenodd" d="M14.2168 17.0695L26.5179 0.564453H23.025L13.2281 13.7934L3.43091 0.564453H0L12.2387 17.0695H14.2168Z" fill="white"/>
</g>
</svg>
