<svg width="31" height="37" viewBox="0 0 31 37" fill="none" xmlns="http://www.w3.org/2000/svg">
<path d="M21 1.95738C21.0006 1.66175 20.9137 1.37254 20.7504 1.1261C20.5872 0.879651 20.3547 0.68695 20.0822 0.572199C19.8098 0.457448 19.5095 0.425765 19.2191 0.481129C18.9287 0.536493 18.6611 0.676436 18.45 0.883379L9.672 9.43338H4.5C3.30653 9.43338 2.16193 9.90748 1.31802 10.7514C0.474106 11.5953 0 12.7399 0 13.9334V22.9034C0 24.0969 0.474106 25.2414 1.31802 26.0854C2.16193 26.9293 3.30653 27.4034 4.5 27.4034H9.669L18.447 36.0284C18.6578 36.2362 18.9254 36.3769 19.216 36.433C19.5066 36.489 19.8073 36.4578 20.0803 36.3433C20.3532 36.2288 20.5862 36.0361 20.7498 35.7895C20.9135 35.5429 21.0005 35.2534 21 34.9574V1.95738Z" fill="white"/>
<path d="M24.33 10.0243C24.4526 9.86996 24.6045 9.74132 24.7769 9.64571C24.9493 9.55011 25.1388 9.48943 25.3347 9.46714C25.5306 9.44485 25.7289 9.46139 25.9184 9.51581C26.1079 9.57023 26.2848 9.66147 26.439 9.7843H26.442L26.445 9.7873L26.451 9.7933L26.469 9.8053L26.514 9.8443L26.649 9.9643C27.2823 10.5723 27.8339 11.2601 28.29 12.0103C29.166 13.4503 30.012 15.5893 30.012 18.4543C30.012 21.3163 29.166 23.4583 28.29 24.8983C27.9409 25.4782 27.5349 26.0219 27.078 26.5213C26.8864 26.7288 26.683 26.9251 26.469 27.1093L26.445 27.1303C26.445 27.1303 25.104 27.8593 24.333 26.8963C24.0863 26.5869 23.9719 26.1927 24.0146 25.7994C24.0573 25.406 24.2537 25.0455 24.561 24.7963L24.564 24.7903V24.7933L24.567 24.7903L24.621 24.7423C25.047 24.3233 25.4189 23.8527 25.728 23.3413C26.355 22.3063 27.012 20.6953 27.012 18.4513C27.012 16.2103 26.355 14.6023 25.728 13.5703C25.4186 13.061 25.0467 12.5923 24.621 12.1753C24.6032 12.159 24.5852 12.143 24.567 12.1273H24.57C24.26 11.8797 24.0607 11.5195 24.0158 11.1254C23.9708 10.7312 24.0838 10.3353 24.33 10.0243Z" fill="white"/>
</svg>
